<svg id="Слой_1" data-name="Слой 1" xmlns="http://www.w3.org/2000/svg" xmlns:xlink="http://www.w3.org/1999/xlink" viewBox="0 0 64 64"><defs><style>.cls-1{fill:none;}.cls-2{fill:#fff;}.cls-3{clip-path:url(#clip-path);}</style><clipPath id="clip-path"><path class="cls-1" d="M-311.38-103.45a7.13,7.13,0,0,0-7.13,7.13,7.13,7.13,0,0,0,7.13,7.12,7.12,7.12,0,0,0,7.12-7.12A7.12,7.12,0,0,0-311.38-103.45Zm0-3.75A10.89,10.89,0,0,1-300.5-96.32a10.88,10.88,0,0,1-10.88,10.87,10.88,10.88,0,0,1-10.88-10.87A10.88,10.88,0,0,1-311.38-107.2Zm0-2.62a13.22,13.22,0,0,0-9.57,4.12,13.63,13.63,0,0,0-4.11,9l0,.7c-.37,8.63,7.69,19.31,12.76,25.88a12.87,12.87,0,0,0,1.12,1.68l1.13-1.68,2.75-3.85,1-1.41c4.31-6.24,9-14,8.84-20.62A13.84,13.84,0,0,0-311.38-109.82Zm-69.72,17-.5.38a52.92,52.92,0,0,0-20.56,40.77V-51l.38-.06.45-.09a10.47,10.47,0,0,0,8.54-9.91c.57-8.07,4.69-10.5,8.26-12.57,2.06-1.12,3.94-2.25,5.25-4.5C-376.53-82.45-379.32-89.62-381.1-92.78Zm48,8.27c-.19.19-.38.19-.57.37l-1.52.8-1,.51-.83.38c-4.32,1.69-14.82,7.69-15.2,11.44-.36,2.93,6.44,8.91,19.55,12.16l.59.14c3.08-2,6.61-3.64,9.5-3.11a4.84,4.84,0,0,1,3.28,1.87l.29.38a5.27,5.27,0,0,1,.93,4.12,7.37,7.37,0,0,1-1,2.5l3.05.46.2,0,1-.1.9-.06c3.11-.19,8.73-.2,11.95,1.85a61.16,61.16,0,0,1,5.86,4.09c.09-1.29.14-2.59.14-3.9A53.18,53.18,0,0,0-301.95-75c-1.8,2.69-3.61,5.12-5.12,7.14a28.71,28.71,0,0,0-2.44,3.18,2.27,2.27,0,0,1-1.87.94,2.39,2.39,0,0,1-1.72-.73l-1.31-1.66-.62-.81-.67-.92-1.37-1.84-1.35-1.85a79.36,79.36,0,0,1-7.42-12.14c-.72,0-1.44-.12-2.14-.19l-1-.11-3.74-.52Zm0,31.69-2.07,1.5a2,2,0,0,1-2.06.18c-2.63-1.31-8.25-2.06-11.26-2.43a7.65,7.65,0,0,0-1.87-.19c-3.19-.56-5.44,0-6.38.56h.19A47,47,0,0,1-345.71-47a1.83,1.83,0,0,1,.75,1.69,2,2,0,0,1-.75,1.68l-8.44,6.75a1.46,1.46,0,0,1-1.26.44l-.24-.06a32.06,32.06,0,0,0-5.63-.19h-.56l4.31,2.81.56.57.24.45.2.49a49.78,49.78,0,0,1,1.44,4.87l.37-.19.36-.87.33-.85a28,28,0,0,0,1.19-3.72,2.39,2.39,0,0,1,.94-1.31l9.38-5.44h.75a1.12,1.12,0,0,1,.75.19,1.61,1.61,0,0,1,1.12,1.31,55,55,0,0,1,2.07,12.19V-26a11.45,11.45,0,0,0,2.5-5.38l.12-.62a19.43,19.43,0,0,1,.57-2.25c.75-3,1.68-8.06,1.5-10.88a1.89,1.89,0,0,1,.93-1.87l2.07-1.5,1.48-1,.86-.61c2.5-1.83,5.45-4.29,5.72-6.23a1.72,1.72,0,0,0-.18-.93c-.16-.32-.32-.5-.58-.55l-.17,0C-325.45-58.26-330.7-54.7-333.14-52.82Zm-63,4.18-.32.17A15.55,15.55,0,0,1-402-46.85a52.82,52.82,0,0,0,9.88,27.24q2.82-.63,6.12-1.71-2.18-6.55-1.31-17.25c.44-6-5.47-8.89-8.3-9.9Zm-7.57,13.56-.34.57c-3.52,6-4.57,10.76-2.77,13.37,1.38,2,5,2.95,10.62,2.25a57.43,57.43,0,0,1-7.11-14.85Zm19.34,17.38-.67.22c-1.53.49-3,.91-4.42,1.27,1.15,1.36,2.38,2.65,3.66,3.89,1.74-.35,3.65-1.19,4-1.76l.06-.12,0-.07-.07-.13a4.08,4.08,0,0,0-.3-.37l-.17-.18A13.67,13.67,0,0,1-384.41-17.7Zm83.92-11.54-.44.11a14.73,14.73,0,0,0-4.45,1.81C-308-25.45-312.13-20.2-312.7-17a15.4,15.4,0,0,0,.07,5A53.58,53.58,0,0,0-301-28Zm-48.41-74.4a53,53,0,0,0-28.74,8.44l.36.63.29.57c1.84,3.61,5.23,12,1.26,18.11-1.87,3-4.5,4.5-6.75,5.82l-1.38.85-.65.42c-2.3,1.57-3.86,3.39-4.16,8.1a14.68,14.68,0,0,1-3.77,9.2c4.57,2.1,9.79,6.36,9.21,13.3-.49,6.45-.1,11.64,1.15,15.46a126.61,126.61,0,0,0,12.31-5.57l1.36-.7a2,2,0,0,1,2.81.94,2,2,0,0,1-.93,2.81,149.12,149.12,0,0,1-13.85,6.13,10.75,10.75,0,0,0,1.09,1.37,4.67,4.67,0,0,1,1.5,4.87c-.56,1.9-2.51,3.14-4.28,3.86a52.8,52.8,0,0,0,33,11.52A52.86,52.86,0,0,0-316-9.09l-.19-.9a23.77,23.77,0,0,1-.42-8c.94-4.69,6-10.69,9-12.75,2.41-1.7,6.63-2.65,8.88-3a53.3,53.3,0,0,0,2.09-8.5,34.52,34.52,0,0,0-7.22-5.36c-2.81-1.69-9.38-1.32-11.44-.94h-.57l-.29,0c-.9-.11-3.68-.49-6-.9a66.26,66.26,0,0,1-5.72,4.49l-1.13.75a50.68,50.68,0,0,1-1.68,10.88l-.26,1.26a7,7,0,0,0-.11.69v.3c-.9,5.24-3.9,9.26-6.81,9.54l-.32,0c-1.69,0-3.37-1.31-3.75-4.31a55.56,55.56,0,0,0-1.31-8.82l-6.19,3.57-.27.91a43.21,43.21,0,0,1-1.8,4.9,1.45,1.45,0,0,1-.75.75l-3.19,2.25a1.74,1.74,0,0,1-1.87.19,2.17,2.17,0,0,1-1.32-1.5l-.26-1.23c-.55-2.46-1.29-5-1.61-6.09l-6.19-3.93a2,2,0,0,1-.94-1.69,2,2,0,0,1,.94-1.69l3.19-2.25a1.42,1.42,0,0,1,.94-.37,22,22,0,0,1,6.19,0l5.62-4.5a61,61,0,0,0-7.88-4.13c-2.81-1.31-3.37-3.19-3-4.69.94-3,5.82-4.68,11.63-3.75.38,0,1.13.19,1.88.19a60.43,60.43,0,0,1,11.25,2.25l.32-.21c-12.28-3.62-20.53-9.91-20-15.73.75-7.68,17.44-15,17.63-15l1.76-.89.59-.32.47-.29c1.66-1,2.44-1.11,5.1-.59l1.09.22,1.31.19,1.05.16a23.59,23.59,0,0,1-1.43-8,16.66,16.66,0,0,1,.39-3.62A51.89,51.89,0,0,0-348.9-103.64Zm37.52-9.93a17.6,17.6,0,0,1,17.63,17.62c.1,5.51-2.44,11.47-5.59,16.85a56.59,56.59,0,0,1,7.65,28.34,57,57,0,0,1-.66,8.72l0,.17,0,.16a57.18,57.18,0,0,1-2.21,9l-.55,1.59-.06.15A57.58,57.58,0,0,1-312.34-6.82a2.36,2.36,0,0,1-.74.6A56.92,56.92,0,0,1-348.9,6.43a56.9,56.9,0,0,1-44.74-21.75,34.64,34.64,0,0,1-5.91.56c-4.88,0-8.63-1.31-10.5-4.13-3.19-4.5-1.69-11.62,4.31-20.62a1.78,1.78,0,0,1,.79-.7,57.35,57.35,0,0,1-1-10.55,56.72,56.72,0,0,1,57-56.82,56.78,56.78,0,0,1,21.59,4.21,18,18,0,0,1,3.55-4.95A17,17,0,0,1-311.38-113.57Z"/></clipPath></defs><title>жалобы медработников</title><path class="cls-2" d="M33.05,21.2l-5.52-8.32A2,2,0,0,0,25.61,12a1.84,1.84,0,0,0-1.53,1.2l-.61,1.55A44.78,44.78,0,0,1,13.41,30a45.75,45.75,0,0,1-7.64,6.15l-2,1.31A8,8,0,0,0,.18,42.6a7.9,7.9,0,0,0,1.16,6.07A8.28,8.28,0,0,0,12,51.42L24,62.75a4.58,4.58,0,0,0,5.63.52,4.44,4.44,0,0,0,.86-6.77l-3.09-3.29a4.09,4.09,0,0,0,.81-4.85,3.49,3.49,0,0,0-.69-1l-2.37-2.65a46.22,46.22,0,0,1,16.65-2.31l1.7.07a1.83,1.83,0,0,0,1.73-.9,1.93,1.93,0,0,0-.07-2.09l-5.52-8.32A6.17,6.17,0,0,0,40,23.83,6.42,6.42,0,0,0,33.05,21.2ZM3.16,47.5a5.86,5.86,0,0,1,1.76-8.2L7,38q2-1.27,3.83-2.73l6.84,10.31q-2,1.05-4,2.28h0l-.08,0h0L11.5,49.23A6.1,6.1,0,0,1,3.16,47.5ZM29.52,59.81a2.33,2.33,0,0,1-1.05,1.66,2.37,2.37,0,0,1-2.93-.27l-11.64-11,.86-.55A44.54,44.54,0,0,1,19,47.31L28.91,58A2.3,2.3,0,0,1,29.52,59.81ZM26.26,49.26A2,2,0,0,1,26,51.63L21,46.34c.65-.29,1.31-.56,2-.82l2.95,3.3,0,0A1.57,1.57,0,0,1,26.26,49.26Zm16.88-8.93-1.21,0a48.52,48.52,0,0,0-19.17,3c-1.07.4-2.12.84-3.16,1.32L12.47,33.87c.86-.75,1.69-1.52,2.49-2.32a46.94,46.94,0,0,0,10.54-16l.44-1.11Zm-4.76-11.1-4-6.08A4.2,4.2,0,0,1,38.21,25,4,4,0,0,1,38.38,29.23Z"/><path class="cls-2" d="M55.22,12.81,43.94,20.05a1.06,1.06,0,0,0-.32,1.48,1.09,1.09,0,0,0,1.51.31l11.28-7.23a1.08,1.08,0,0,0,.32-1.49A1.11,1.11,0,0,0,55.22,12.81Z"/><path class="cls-2" d="M63,28.15,48.6,27.49a1.07,1.07,0,1,0-.1,2.14l14.36.66a1.09,1.09,0,0,0,1.14-1A1.08,1.08,0,0,0,63,28.15Z"/><path class="cls-2" d="M39.66,15.16a1,1,0,0,0,.42-.51L45.25,1.46A1.07,1.07,0,0,0,44.63.07a1.09,1.09,0,0,0-1.41.62L38.05,13.88a1.08,1.08,0,0,0,1.61,1.28Z"/></svg>