<svg width="476" height="512" viewBox="0 0 476 512" fill="none" xmlns="http://www.w3.org/2000/svg">
<path d="M471.883 169.772C466.978 140.109 451.628 113.128 428.559 93.6233C428.559 93.6233 396.691 70.1867 357.24 47.3899C332.749 32.8803 307.457 19.7416 281.484 8.03559C267.741 2.47677 253 -0.244975 238.16 0.0367396C223.285 -0.353727 208.495 2.37192 194.756 8.03559C168.874 19.8146 143.616 32.8965 119.08 47.23C79.548 70.7466 47.7611 93.6233 47.7611 93.6233C24.4484 112.94 9.02071 140.007 4.35659 169.772C4.35659 169.772 0 208.967 0 256C0 303.033 4.35659 341.668 4.35659 341.668C9.24216 371.357 24.629 398.351 47.7611 417.817C47.7611 417.817 79.548 441.253 119.08 464.61C143.55 479.109 168.814 492.248 194.756 503.964C208.524 509.529 223.294 512.251 238.16 511.963C253.009 512.354 267.773 509.628 281.484 503.964C307.388 492.177 332.672 479.095 357.24 464.77C396.691 441.413 428.559 417.977 428.559 417.977C451.836 398.642 467.233 371.579 471.883 341.828C474.696 313.304 476.069 284.659 475.997 256C475.997 209.447 471.883 169.772 471.883 169.772ZM449.939 338.948C445.886 362.636 433.684 384.202 415.409 399.979C414.844 399.979 384.106 422.856 346.268 445.093C322.481 459.142 297.917 471.853 272.69 483.167C261.671 487.324 249.947 489.334 238.16 489.086C226.347 489.332 214.597 487.322 203.549 483.167C178.408 471.704 153.877 458.969 130.052 445.013C92.2144 422.776 60.9115 399.979 60.9115 399.979C42.5744 384.273 30.335 362.718 26.3009 339.028C23.1835 311.463 21.7287 283.737 21.9443 256C21.9443 211.366 25.8168 172.732 25.8168 172.732C29.8872 149.073 42.087 127.538 60.3468 111.781C60.9115 111.781 91.6497 88.9839 129.487 66.6672C153.24 52.6074 177.779 39.8954 202.985 28.5926C214.108 23.9568 226.098 21.7209 238.16 22.0336C249.955 21.7709 261.688 23.8093 272.69 28.0327C297.871 39.4383 322.431 52.1473 346.268 66.1072C384.106 88.424 415.409 111.221 415.409 111.221C433.732 126.927 445.945 148.486 449.939 172.172C449.939 172.732 453.811 210.806 453.811 255.44C454.043 283.325 452.75 311.202 449.939 338.948V338.948Z" fill="#5BBDBD"/>
<mask id="path-2-inside-1" fill="white">
<path d="M337.3 267.024C336.674 266.922 336.033 266.954 335.42 267.117C334.807 267.28 334.235 267.57 333.742 267.969C332.587 268.844 331.259 269.465 329.847 269.791C328.434 270.117 326.968 270.14 325.546 269.859L312.755 267.429C310.372 266.965 308.227 265.679 306.696 263.795C305.164 261.912 304.344 259.55 304.378 257.124C304.378 255.864 304.378 254.604 304.378 253.344C304.299 250.882 305.098 248.471 306.633 246.543C308.167 244.614 310.337 243.293 312.755 242.814H313.296C315.898 242.278 318.606 242.761 320.862 244.164C321.569 244.617 322.425 244.779 323.249 244.614C325.546 244.164 326.807 241.059 326.131 237.684C325.456 234.309 323.024 231.924 320.727 232.419C319.916 232.595 319.205 233.079 318.745 233.769C317.212 235.922 314.933 237.429 312.35 237.999H311.765C309.367 238.48 306.875 238.098 304.732 236.921C302.589 235.743 300.932 233.845 300.055 231.564C299.605 230.394 299.109 229.224 298.614 228.099C297.61 225.886 297.422 223.39 298.081 221.052C298.74 218.714 300.205 216.683 302.217 215.319L312.755 208.029C313.968 207.206 315.34 206.644 316.782 206.381C318.225 206.118 319.706 206.158 321.132 206.499C321.744 206.671 322.385 206.712 323.014 206.619C323.643 206.526 324.245 206.301 324.78 205.959C327.347 204.204 327.347 199.749 324.78 195.969C322.213 192.189 318.07 190.524 315.503 192.234C314.986 192.606 314.555 193.083 314.237 193.634C313.918 194.184 313.72 194.796 313.656 195.429C313.441 196.868 312.929 198.246 312.154 199.478C311.379 200.709 310.357 201.767 309.152 202.584L298.344 209.874C296.339 211.244 293.914 211.861 291.498 211.614C289.082 211.367 286.832 210.272 285.148 208.524C284.247 207.624 283.391 206.724 282.446 205.869C280.659 204.208 279.516 201.97 279.22 199.55C278.923 197.129 279.491 194.682 280.824 192.639L281.14 192.144C282.6 189.905 284.851 188.298 287.445 187.644C288.263 187.458 288.984 186.977 289.471 186.294C290.732 184.359 289.471 181.209 286.589 179.319C283.707 177.429 280.329 177.474 279.068 179.319C278.828 179.671 278.664 180.068 278.586 180.487C278.509 180.905 278.519 181.335 278.617 181.749C279.059 184.349 278.496 187.019 277.041 189.219L276.771 189.714C275.404 191.748 273.364 193.236 271.01 193.919C268.655 194.602 266.135 194.435 263.89 193.449C262.765 192.909 261.594 192.459 260.423 192.009C258.266 191.1 256.479 189.49 255.352 187.44C254.224 185.391 253.821 183.021 254.208 180.714L256.685 167.934C256.964 166.515 257.537 165.169 258.367 163.983C259.197 162.798 260.265 161.798 261.504 161.049C262.061 160.738 262.546 160.313 262.926 159.801C263.307 159.289 263.574 158.702 263.71 158.079C264.296 155.019 261.143 151.869 256.64 151.014C252.136 150.159 248.038 151.914 247.632 154.974C247.53 155.6 247.562 156.24 247.725 156.853C247.888 157.465 248.179 158.036 248.578 158.529C249.454 159.683 250.076 161.01 250.402 162.422C250.728 163.833 250.751 165.298 250.47 166.719L247.632 179.499C247.168 181.881 245.881 184.024 243.996 185.554C242.11 187.084 239.747 187.903 237.319 187.869H233.536C231.071 187.948 228.659 187.15 226.729 185.617C224.799 184.084 223.476 181.916 222.997 179.499V178.959C222.461 176.359 222.944 173.653 224.348 171.399C224.802 170.692 224.963 169.837 224.799 169.014C224.348 166.719 221.241 165.459 217.863 166.134C214.485 166.809 212.098 169.239 212.594 171.534C212.77 172.344 213.254 173.054 213.945 173.514C216.137 175.09 217.65 177.438 218.178 180.084V180.669C218.66 183.065 218.278 185.554 217.099 187.696C215.92 189.837 214.021 191.492 211.738 192.369L208.27 193.809C206.056 194.812 203.558 195 201.217 194.342C198.877 193.683 196.845 192.219 195.48 190.209L188.184 179.499C187.36 178.287 186.798 176.917 186.534 175.475C186.271 174.034 186.311 172.554 186.652 171.129C186.825 170.518 186.866 169.877 186.773 169.249C186.68 168.62 186.454 168.019 186.112 167.484C184.356 164.919 179.897 164.919 176.114 167.484C172.331 170.049 170.664 174.189 172.376 176.754C172.748 177.27 173.226 177.701 173.777 178.019C174.328 178.337 174.94 178.535 175.573 178.599C177.013 178.814 178.393 179.325 179.626 180.1C180.858 180.874 181.917 181.895 182.734 183.099L190.03 193.899C191.402 195.901 192.019 198.325 191.771 200.739C191.524 203.153 190.428 205.401 188.679 207.084C187.778 207.984 186.878 208.839 186.022 209.784C184.36 211.569 182.12 212.711 179.697 213.007C177.275 213.304 174.826 212.736 172.781 211.404L172.376 210.999C170.135 209.54 168.527 207.29 167.872 204.699C167.686 203.881 167.205 203.161 166.521 202.674C164.584 201.414 161.432 202.674 159.54 205.554C157.649 208.434 157.694 211.809 159.54 213.069C159.892 213.309 160.29 213.473 160.709 213.55C161.128 213.628 161.558 213.617 161.972 213.519C164.574 213.078 167.247 213.641 169.448 215.094L169.944 215.364C171.979 216.73 173.469 218.768 174.152 221.121C174.836 223.473 174.669 225.991 173.682 228.234C173.141 229.359 172.691 230.529 172.241 231.699C171.367 233.965 169.726 235.854 167.603 237.038C165.481 238.222 163.011 238.625 160.621 238.179L147.831 235.704C146.41 235.425 145.064 234.852 143.877 234.023C142.69 233.194 141.69 232.127 140.94 230.889C140.629 230.332 140.204 229.847 139.691 229.467C139.179 229.087 138.591 228.82 137.968 228.684C134.905 228.099 131.753 231.249 130.897 235.749C130.041 240.249 131.798 244.344 134.86 244.749C135.486 244.851 136.127 244.819 136.74 244.656C137.353 244.493 137.925 244.203 138.418 243.804C139.573 242.929 140.901 242.308 142.314 241.982C143.727 241.656 145.192 241.633 146.615 241.914L159.405 244.344C161.789 244.808 163.934 246.094 165.465 247.978C166.996 249.861 167.816 252.223 167.782 254.649C167.782 255.909 167.782 257.169 167.782 258.429C167.926 260.897 167.184 263.336 165.69 265.307C164.196 267.278 162.047 268.653 159.63 269.184H159.09C156.488 269.72 153.779 269.237 151.524 267.834C150.817 267.381 149.961 267.219 149.137 267.384C146.84 267.834 145.579 270.939 146.255 274.314C146.93 277.689 149.362 280.074 151.659 279.579C152.47 279.403 153.18 278.919 153.641 278.229C155.218 276.039 157.568 274.527 160.216 273.999H160.801C163.199 273.518 165.691 273.9 167.834 275.077C169.977 276.255 171.634 278.153 172.511 280.434C172.961 281.604 173.457 282.774 173.952 283.899C174.956 286.112 175.144 288.608 174.485 290.946C173.826 293.284 172.361 295.315 170.349 296.679L159.63 303.969C158.422 304.765 157.063 305.303 155.637 305.551C154.211 305.799 152.75 305.75 151.344 305.409C150.732 305.237 150.091 305.196 149.462 305.289C148.833 305.382 148.231 305.607 147.696 305.949C145.129 307.704 145.129 312.159 147.696 315.939C150.263 319.719 154.406 321.384 156.973 319.674C157.49 319.302 157.921 318.825 158.239 318.274C158.558 317.724 158.755 317.112 158.82 316.479C159.035 315.04 159.546 313.662 160.322 312.43C161.097 311.199 162.119 310.141 163.323 309.324L174.132 302.034C176.136 300.664 178.562 300.047 180.978 300.294C183.393 300.541 185.643 301.636 187.328 303.384C188.229 304.284 189.084 305.184 190.03 306.039C191.817 307.7 192.959 309.938 193.256 312.359C193.553 314.779 192.984 317.226 191.652 319.269L191.336 319.764C189.876 322.003 187.625 323.61 185.031 324.264C184.213 324.45 183.492 324.931 183.005 325.614C181.743 327.549 183.005 330.699 185.887 332.589C188.769 334.479 192.147 334.434 193.408 332.589C193.648 332.238 193.812 331.84 193.89 331.421C193.967 331.003 193.957 330.573 193.858 330.159C193.417 327.559 193.98 324.889 195.435 322.689L195.705 322.194C197.072 320.16 199.111 318.672 201.466 317.989C203.821 317.306 206.341 317.473 208.585 318.459C209.711 318.999 210.882 319.449 212.053 319.899C214.321 320.772 216.212 322.412 217.396 324.533C218.581 326.653 218.985 329.122 218.538 331.509L216.061 344.289C215.782 345.708 215.209 347.054 214.379 348.24C213.549 349.425 212.481 350.425 211.243 351.174C210.685 351.485 210.2 351.91 209.82 352.422C209.439 352.934 209.172 353.521 209.036 354.144C208.45 357.204 211.603 360.354 216.107 361.209C220.61 362.064 224.709 360.309 225.114 357.249C225.216 356.623 225.184 355.983 225.021 355.371C224.858 354.758 224.567 354.187 224.168 353.694C223.292 352.54 222.67 351.213 222.344 349.801C222.018 348.39 221.995 346.925 222.277 345.504L224.754 332.499C225.218 330.117 226.505 327.974 228.39 326.444C230.275 324.914 232.639 324.095 235.067 324.129H238.85C241.314 324.05 243.727 324.848 245.657 326.381C247.587 327.914 248.91 330.082 249.389 332.499V333.039C249.925 335.639 249.442 338.345 248.038 340.599C247.584 341.306 247.422 342.161 247.587 342.984C248.038 345.279 251.145 346.539 254.523 345.864C257.901 345.189 260.288 342.759 259.792 340.464C259.616 339.654 259.131 338.944 258.441 338.484C256.249 336.908 254.736 334.56 254.208 331.914V331.329C253.726 328.933 254.108 326.444 255.287 324.302C256.466 322.161 258.365 320.506 260.648 319.629L264.116 318.189C266.33 317.186 268.828 316.998 271.168 317.656C273.509 318.315 275.541 319.779 276.906 321.789L284.202 332.499C285.026 333.711 285.588 335.081 285.851 336.523C286.115 337.964 286.075 339.444 285.733 340.869C285.561 341.48 285.52 342.121 285.613 342.749C285.706 343.378 285.931 343.979 286.274 344.514C288.03 347.079 292.489 347.079 296.272 344.514C300.055 341.949 301.721 337.809 300.01 335.244C299.638 334.728 299.16 334.297 298.609 333.979C298.058 333.661 297.446 333.463 296.812 333.399C295.372 333.184 293.993 332.673 292.76 331.898C291.528 331.124 290.469 330.103 289.651 328.899L282.356 318.099C280.984 316.097 280.367 313.673 280.614 311.259C280.862 308.845 281.957 306.597 283.707 304.914C284.607 304.014 285.508 303.159 286.364 302.214C288.026 300.429 290.266 299.287 292.688 298.991C295.111 298.694 297.56 299.262 299.605 300.594L300.1 300.909C302.341 302.368 303.949 304.618 304.604 307.209C304.79 308.027 305.271 308.747 305.955 309.234C307.891 310.494 311.044 309.234 312.935 306.354C314.827 303.474 314.782 300.099 312.935 298.839C312.584 298.599 312.186 298.435 311.767 298.358C311.348 298.28 310.918 298.291 310.503 298.389C307.902 298.83 305.229 298.267 303.027 296.814L302.217 296.499C300.181 295.133 298.692 293.095 298.008 290.742C297.325 288.39 297.491 285.872 298.479 283.629C299.019 282.504 299.469 281.334 299.92 280.164C300.849 277.956 302.513 276.137 304.63 275.013C306.748 273.89 309.188 273.532 311.539 273.999L324.33 276.474C325.75 276.753 327.097 277.326 328.284 278.155C329.47 278.984 330.47 280.051 331.22 281.289C331.531 281.846 331.957 282.331 332.469 282.711C332.982 283.091 333.569 283.358 334.193 283.494C337.255 284.079 340.408 280.929 341.264 276.429C342.119 271.929 340.363 267.609 337.3 267.024Z"/>
</mask>
<path d="M337.3 267.024C336.674 266.922 336.033 266.954 335.42 267.117C334.807 267.28 334.235 267.57 333.742 267.969C332.587 268.844 331.259 269.465 329.847 269.791C328.434 270.117 326.968 270.14 325.546 269.859L312.755 267.429C310.372 266.965 308.227 265.679 306.696 263.795C305.164 261.912 304.344 259.55 304.378 257.124C304.378 255.864 304.378 254.604 304.378 253.344C304.299 250.882 305.098 248.471 306.633 246.543C308.167 244.614 310.337 243.293 312.755 242.814H313.296C315.898 242.278 318.606 242.761 320.862 244.164C321.569 244.617 322.425 244.779 323.249 244.614C325.546 244.164 326.807 241.059 326.131 237.684C325.456 234.309 323.024 231.924 320.727 232.419C319.916 232.595 319.205 233.079 318.745 233.769C317.212 235.922 314.933 237.429 312.35 237.999H311.765C309.367 238.48 306.875 238.098 304.732 236.921C302.589 235.743 300.932 233.845 300.055 231.564C299.605 230.394 299.109 229.224 298.614 228.099C297.61 225.886 297.422 223.39 298.081 221.052C298.74 218.714 300.205 216.683 302.217 215.319L312.755 208.029C313.968 207.206 315.34 206.644 316.782 206.381C318.225 206.118 319.706 206.158 321.132 206.499C321.744 206.671 322.385 206.712 323.014 206.619C323.643 206.526 324.245 206.301 324.78 205.959C327.347 204.204 327.347 199.749 324.78 195.969C322.213 192.189 318.07 190.524 315.503 192.234C314.986 192.606 314.555 193.083 314.237 193.634C313.918 194.184 313.72 194.796 313.656 195.429C313.441 196.868 312.929 198.246 312.154 199.478C311.379 200.709 310.357 201.767 309.152 202.584L298.344 209.874C296.339 211.244 293.914 211.861 291.498 211.614C289.082 211.367 286.832 210.272 285.148 208.524C284.247 207.624 283.391 206.724 282.446 205.869C280.659 204.208 279.516 201.97 279.22 199.55C278.923 197.129 279.491 194.682 280.824 192.639L281.14 192.144C282.6 189.905 284.851 188.298 287.445 187.644C288.263 187.458 288.984 186.977 289.471 186.294C290.732 184.359 289.471 181.209 286.589 179.319C283.707 177.429 280.329 177.474 279.068 179.319C278.828 179.671 278.664 180.068 278.586 180.487C278.509 180.905 278.519 181.335 278.617 181.749C279.059 184.349 278.496 187.019 277.041 189.219L276.771 189.714C275.404 191.748 273.364 193.236 271.01 193.919C268.655 194.602 266.135 194.435 263.89 193.449C262.765 192.909 261.594 192.459 260.423 192.009C258.266 191.1 256.479 189.49 255.352 187.44C254.224 185.391 253.821 183.021 254.208 180.714L256.685 167.934C256.964 166.515 257.537 165.169 258.367 163.983C259.197 162.798 260.265 161.798 261.504 161.049C262.061 160.738 262.546 160.313 262.926 159.801C263.307 159.289 263.574 158.702 263.71 158.079C264.296 155.019 261.143 151.869 256.64 151.014C252.136 150.159 248.038 151.914 247.632 154.974C247.53 155.6 247.562 156.24 247.725 156.853C247.888 157.465 248.179 158.036 248.578 158.529C249.454 159.683 250.076 161.01 250.402 162.422C250.728 163.833 250.751 165.298 250.47 166.719L247.632 179.499C247.168 181.881 245.881 184.024 243.996 185.554C242.11 187.084 239.747 187.903 237.319 187.869H233.536C231.071 187.948 228.659 187.15 226.729 185.617C224.799 184.084 223.476 181.916 222.997 179.499V178.959C222.461 176.359 222.944 173.653 224.348 171.399C224.802 170.692 224.963 169.837 224.799 169.014C224.348 166.719 221.241 165.459 217.863 166.134C214.485 166.809 212.098 169.239 212.594 171.534C212.77 172.344 213.254 173.054 213.945 173.514C216.137 175.09 217.65 177.438 218.178 180.084V180.669C218.66 183.065 218.278 185.554 217.099 187.696C215.92 189.837 214.021 191.492 211.738 192.369L208.27 193.809C206.056 194.812 203.558 195 201.217 194.342C198.877 193.683 196.845 192.219 195.48 190.209L188.184 179.499C187.36 178.287 186.798 176.917 186.534 175.475C186.271 174.034 186.311 172.554 186.652 171.129C186.825 170.518 186.866 169.877 186.773 169.249C186.68 168.62 186.454 168.019 186.112 167.484C184.356 164.919 179.897 164.919 176.114 167.484C172.331 170.049 170.664 174.189 172.376 176.754C172.748 177.27 173.226 177.701 173.777 178.019C174.328 178.337 174.94 178.535 175.573 178.599C177.013 178.814 178.393 179.325 179.626 180.1C180.858 180.874 181.917 181.895 182.734 183.099L190.03 193.899C191.402 195.901 192.019 198.325 191.771 200.739C191.524 203.153 190.428 205.401 188.679 207.084C187.778 207.984 186.878 208.839 186.022 209.784C184.36 211.569 182.12 212.711 179.697 213.007C177.275 213.304 174.826 212.736 172.781 211.404L172.376 210.999C170.135 209.54 168.527 207.29 167.872 204.699C167.686 203.881 167.205 203.161 166.521 202.674C164.584 201.414 161.432 202.674 159.54 205.554C157.649 208.434 157.694 211.809 159.54 213.069C159.892 213.309 160.29 213.473 160.709 213.55C161.128 213.628 161.558 213.617 161.972 213.519C164.574 213.078 167.247 213.641 169.448 215.094L169.944 215.364C171.979 216.73 173.469 218.768 174.152 221.121C174.836 223.473 174.669 225.991 173.682 228.234C173.141 229.359 172.691 230.529 172.241 231.699C171.367 233.965 169.726 235.854 167.603 237.038C165.481 238.222 163.011 238.625 160.621 238.179L147.831 235.704C146.41 235.425 145.064 234.852 143.877 234.023C142.69 233.194 141.69 232.127 140.94 230.889C140.629 230.332 140.204 229.847 139.691 229.467C139.179 229.087 138.591 228.82 137.968 228.684C134.905 228.099 131.753 231.249 130.897 235.749C130.041 240.249 131.798 244.344 134.86 244.749C135.486 244.851 136.127 244.819 136.74 244.656C137.353 244.493 137.925 244.203 138.418 243.804C139.573 242.929 140.901 242.308 142.314 241.982C143.727 241.656 145.192 241.633 146.615 241.914L159.405 244.344C161.789 244.808 163.934 246.094 165.465 247.978C166.996 249.861 167.816 252.223 167.782 254.649C167.782 255.909 167.782 257.169 167.782 258.429C167.926 260.897 167.184 263.336 165.69 265.307C164.196 267.278 162.047 268.653 159.63 269.184H159.09C156.488 269.72 153.779 269.237 151.524 267.834C150.817 267.381 149.961 267.219 149.137 267.384C146.84 267.834 145.579 270.939 146.255 274.314C146.93 277.689 149.362 280.074 151.659 279.579C152.47 279.403 153.18 278.919 153.641 278.229C155.218 276.039 157.568 274.527 160.216 273.999H160.801C163.199 273.518 165.691 273.9 167.834 275.077C169.977 276.255 171.634 278.153 172.511 280.434C172.961 281.604 173.457 282.774 173.952 283.899C174.956 286.112 175.144 288.608 174.485 290.946C173.826 293.284 172.361 295.315 170.349 296.679L159.63 303.969C158.422 304.765 157.063 305.303 155.637 305.551C154.211 305.799 152.75 305.75 151.344 305.409C150.732 305.237 150.091 305.196 149.462 305.289C148.833 305.382 148.231 305.607 147.696 305.949C145.129 307.704 145.129 312.159 147.696 315.939C150.263 319.719 154.406 321.384 156.973 319.674C157.49 319.302 157.921 318.825 158.239 318.274C158.558 317.724 158.755 317.112 158.82 316.479C159.035 315.04 159.546 313.662 160.322 312.43C161.097 311.199 162.119 310.141 163.323 309.324L174.132 302.034C176.136 300.664 178.562 300.047 180.978 300.294C183.393 300.541 185.643 301.636 187.328 303.384C188.229 304.284 189.084 305.184 190.03 306.039C191.817 307.7 192.959 309.938 193.256 312.359C193.553 314.779 192.984 317.226 191.652 319.269L191.336 319.764C189.876 322.003 187.625 323.61 185.031 324.264C184.213 324.45 183.492 324.931 183.005 325.614C181.743 327.549 183.005 330.699 185.887 332.589C188.769 334.479 192.147 334.434 193.408 332.589C193.648 332.238 193.812 331.84 193.89 331.421C193.967 331.003 193.957 330.573 193.858 330.159C193.417 327.559 193.98 324.889 195.435 322.689L195.705 322.194C197.072 320.16 199.111 318.672 201.466 317.989C203.821 317.306 206.341 317.473 208.585 318.459C209.711 318.999 210.882 319.449 212.053 319.899C214.321 320.772 216.212 322.412 217.396 324.533C218.581 326.653 218.985 329.122 218.538 331.509L216.061 344.289C215.782 345.708 215.209 347.054 214.379 348.24C213.549 349.425 212.481 350.425 211.243 351.174C210.685 351.485 210.2 351.91 209.82 352.422C209.439 352.934 209.172 353.521 209.036 354.144C208.45 357.204 211.603 360.354 216.107 361.209C220.61 362.064 224.709 360.309 225.114 357.249C225.216 356.623 225.184 355.983 225.021 355.371C224.858 354.758 224.567 354.187 224.168 353.694C223.292 352.54 222.67 351.213 222.344 349.801C222.018 348.39 221.995 346.925 222.277 345.504L224.754 332.499C225.218 330.117 226.505 327.974 228.39 326.444C230.275 324.914 232.639 324.095 235.067 324.129H238.85C241.314 324.05 243.727 324.848 245.657 326.381C247.587 327.914 248.91 330.082 249.389 332.499V333.039C249.925 335.639 249.442 338.345 248.038 340.599C247.584 341.306 247.422 342.161 247.587 342.984C248.038 345.279 251.145 346.539 254.523 345.864C257.901 345.189 260.288 342.759 259.792 340.464C259.616 339.654 259.131 338.944 258.441 338.484C256.249 336.908 254.736 334.56 254.208 331.914V331.329C253.726 328.933 254.108 326.444 255.287 324.302C256.466 322.161 258.365 320.506 260.648 319.629L264.116 318.189C266.33 317.186 268.828 316.998 271.168 317.656C273.509 318.315 275.541 319.779 276.906 321.789L284.202 332.499C285.026 333.711 285.588 335.081 285.851 336.523C286.115 337.964 286.075 339.444 285.733 340.869C285.561 341.48 285.52 342.121 285.613 342.749C285.706 343.378 285.931 343.979 286.274 344.514C288.03 347.079 292.489 347.079 296.272 344.514C300.055 341.949 301.721 337.809 300.01 335.244C299.638 334.728 299.16 334.297 298.609 333.979C298.058 333.661 297.446 333.463 296.812 333.399C295.372 333.184 293.993 332.673 292.76 331.898C291.528 331.124 290.469 330.103 289.651 328.899L282.356 318.099C280.984 316.097 280.367 313.673 280.614 311.259C280.862 308.845 281.957 306.597 283.707 304.914C284.607 304.014 285.508 303.159 286.364 302.214C288.026 300.429 290.266 299.287 292.688 298.991C295.111 298.694 297.56 299.262 299.605 300.594L300.1 300.909C302.341 302.368 303.949 304.618 304.604 307.209C304.79 308.027 305.271 308.747 305.955 309.234C307.891 310.494 311.044 309.234 312.935 306.354C314.827 303.474 314.782 300.099 312.935 298.839C312.584 298.599 312.186 298.435 311.767 298.358C311.348 298.28 310.918 298.291 310.503 298.389C307.902 298.83 305.229 298.267 303.027 296.814L302.217 296.499C300.181 295.133 298.692 293.095 298.008 290.742C297.325 288.39 297.491 285.872 298.479 283.629C299.019 282.504 299.469 281.334 299.92 280.164C300.849 277.956 302.513 276.137 304.63 275.013C306.748 273.89 309.188 273.532 311.539 273.999L324.33 276.474C325.75 276.753 327.097 277.326 328.284 278.155C329.47 278.984 330.47 280.051 331.22 281.289C331.531 281.846 331.957 282.331 332.469 282.711C332.982 283.091 333.569 283.358 334.193 283.494C337.255 284.079 340.408 280.929 341.264 276.429C342.119 271.929 340.363 267.609 337.3 267.024Z" stroke="#5BBDBD" stroke-width="20" mask="url(#path-2-inside-1)"/>
<path d="M236.193 130C261.134 130 285.514 137.39 306.252 151.235C326.989 165.08 343.152 184.758 352.697 207.782C362.241 230.805 364.738 256.14 359.873 280.581C355.007 305.023 342.997 327.474 325.361 345.095C307.725 362.717 285.256 374.717 260.794 379.579C236.333 384.441 210.978 381.945 187.935 372.409C164.893 362.872 145.198 346.722 131.342 326.002C117.486 305.281 110.09 280.92 110.09 256C110.09 222.583 123.376 190.534 147.025 166.905C170.673 143.275 202.748 130 236.193 130V130ZM236.193 112C207.689 112 179.825 120.445 156.125 136.268C132.425 152.091 113.953 174.581 103.046 200.894C92.1376 227.206 89.2836 256.16 94.8444 284.093C100.405 312.026 114.131 337.685 134.286 357.823C154.442 377.962 180.121 391.677 208.077 397.233C236.033 402.789 265.01 399.938 291.344 389.039C317.678 378.14 340.186 359.683 356.022 336.002C371.858 312.321 380.31 284.48 380.31 256C380.31 217.809 365.127 181.182 338.099 154.177C311.072 127.171 274.415 112 236.193 112V112Z" fill="#5BBDBD"/>
<path d="M326.265 355C323.886 355.002 321.603 354.063 319.915 352.39L138.191 170.815C136.501 169.126 135.552 166.836 135.552 164.447C135.552 162.059 136.501 159.769 138.191 158.08C139.882 156.391 142.174 155.442 144.564 155.442C146.954 155.442 149.247 156.391 150.937 158.08L332.705 339.7C333.947 340.966 334.787 342.571 335.12 344.312C335.453 346.054 335.263 347.855 334.575 349.489C333.887 351.123 332.732 352.518 331.253 353.499C329.775 354.479 328.039 355.001 326.265 355V355Z" fill="#5BBDBD"/>
</svg>
