<svg width="238" height="256" viewBox="0 0 238 256" fill="none" xmlns="http://www.w3.org/2000/svg">
<path fill-rule="evenodd" clip-rule="evenodd" d="M97.2346 4.68611C104.055 1.89539 111.374 0.529437 118.741 0.672258C126.125 0.566228 133.453 1.96899 140.275 4.79459C140.275 4.79459 157.931 12.768 177.566 24.3214C197.201 35.8748 212.823 47.5095 212.823 47.5095C223.291 55.2389 232.973 72.352 234.356 85.4784C234.356 85.4784 236.418 105.087 236.418 128.193C236.418 151.3 234.356 170.908 234.356 170.908C232.973 183.98 223.291 201.094 212.823 208.877C201.483 217.217 189.715 224.957 177.566 232.065C157.958 243.483 140.275 251.619 140.275 251.619C133.439 254.386 126.115 255.742 118.741 255.606C111.369 255.717 104.051 254.323 97.2346 251.511C97.2346 251.511 79.552 243.51 59.9167 231.957C40.2813 220.403 24.6599 208.769 24.6599 208.769C14.2184 201.039 4.53638 183.926 3.15323 170.8C3.15323 170.8 1.06494 151.192 1.06494 128.085C1.06494 104.978 3.15323 85.3699 3.15323 85.3699C4.53638 72.2978 14.2184 55.1847 24.6599 47.4011C24.6599 47.4011 40.3085 35.7663 59.9167 24.2129C79.5249 12.6596 97.2346 4.68611 97.2346 4.68611ZM135.8 14.558C130.374 12.4168 124.573 11.384 118.741 11.5205C112.907 11.3926 107.107 12.4347 101.682 14.5851C89.2807 20.2925 77.1782 26.6289 65.4221 33.5696C46.5462 44.689 31.3315 55.9712 31.1688 56.1068C22.0518 63.9397 15.9599 74.7132 13.9472 86.5632C13.9472 86.5793 13.9329 86.7313 13.9065 87.0097C13.6219 90.0202 11.9403 107.807 11.9403 128.139C11.9403 148.471 13.6219 166.258 13.9065 169.269C13.9329 169.547 13.9472 169.699 13.9472 169.715C15.9599 181.565 22.0518 192.339 31.1688 200.171C31.1785 200.178 31.2414 200.224 31.3552 200.308C33.148 201.632 47.5704 212.28 65.4221 222.736C77.1817 229.67 89.2839 236.006 101.682 241.72C107.109 243.861 112.909 244.894 118.741 244.758C124.573 244.894 130.374 243.861 135.8 241.72C148.199 236.006 160.301 229.67 172.06 222.736C190.909 211.643 206.314 200.171 206.314 200.171C215.431 192.339 221.523 181.565 223.535 169.715C223.562 169.525 225.542 150.351 225.542 128.139C225.542 107.807 223.861 90.0202 223.576 87.0097C223.55 86.7313 223.535 86.5793 223.535 86.5632C221.523 74.7132 215.431 63.9397 206.314 56.1068C206.288 56.0939 206.052 55.9217 205.623 55.6096C202.456 53.3012 188.784 43.3377 172.06 33.5424C160.304 26.6018 148.202 20.2654 135.8 14.558Z" fill="#F28230"/>
<path d="M141.368 64L144.32 68.9458C146.414 72.4533 145.529 76.9745 142.267 79.4336L140.906 80.4594C137.182 83.2672 136.64 88.6525 139.729 92.1465L141.368 94" stroke="#F28230" stroke-width="10" stroke-linecap="round"/>
<path d="M119.368 64L122.32 68.9458C124.414 72.4533 123.529 76.9745 120.267 79.4336L118.906 80.4594C115.182 83.2672 114.64 88.6525 117.729 92.1465L119.368 94" stroke="#F28230" stroke-width="10" stroke-linecap="round"/>
<path d="M97.3684 64L100.32 68.9458C102.414 72.4533 101.529 76.9745 98.267 79.4336L96.9065 80.4594C93.1824 83.2672 92.6401 88.6525 95.7295 92.1465L97.3684 94" stroke="#F28230" stroke-width="10" stroke-linecap="round"/>
<path d="M195 110C179.032 110 163.963 113.903 150.667 120.821C145.114 123.71 139.87 127.124 135 131" stroke="#F28230" stroke-width="10" stroke-linecap="round"/>
<mask id="path-6-inside-1" fill="white">
<path fill-rule="evenodd" clip-rule="evenodd" d="M38.4126 131.483C37.1154 128.926 39.0404 126 41.9075 126H196.093C198.96 126 200.885 128.926 199.588 131.483C189.358 151.646 171.79 167.454 150.401 175.389C148.789 175.988 147.686 177.507 147.686 179.226V188C147.686 190.209 145.895 192 143.686 192H93.5683C91.3592 192 89.5683 190.209 89.5683 188V178.946C89.5683 177.239 88.4815 175.729 86.8864 175.122C65.8197 167.102 48.5283 151.421 38.4126 131.483Z"/>
</mask>
<path d="M38.4126 131.483L47.3305 126.958L47.3305 126.958L38.4126 131.483ZM199.588 131.483L190.67 126.958L190.67 126.958L199.588 131.483ZM86.8864 175.122L83.3286 184.467L86.8864 175.122ZM150.401 175.389L153.879 184.765L150.401 175.389ZM41.9075 116C32.1426 116 24.5718 126.304 29.4947 136.007L47.3305 126.958C49.659 131.548 45.9383 136 41.9075 136V116ZM196.093 116H41.9075V136H196.093V116ZM208.506 136.007C213.429 126.304 205.858 116 196.093 116V136C192.062 136 188.341 131.548 190.67 126.958L208.506 136.007ZM153.879 184.765C177.648 175.947 197.148 158.395 208.506 136.007L190.67 126.958C181.569 144.897 165.933 158.961 146.923 166.014L153.879 184.765ZM137.686 179.226V188H157.686V179.226H137.686ZM137.686 188C137.686 184.686 140.372 182 143.686 182V202C151.418 202 157.686 195.732 157.686 188H137.686ZM143.686 182H93.5683V202H143.686V182ZM93.5683 182C96.882 182 99.5683 184.686 99.5683 188H79.5683C79.5683 195.732 85.8363 202 93.5683 202V182ZM99.5683 188V178.946H79.5683V188H99.5683ZM29.4947 136.007C40.7264 158.146 59.9194 175.556 83.3286 184.467L90.4442 165.776C71.72 158.648 56.3301 144.697 47.3305 126.958L29.4947 136.007ZM99.5683 178.946C99.5683 172.905 95.743 167.793 90.4442 165.776L83.3286 184.467C81.22 183.664 79.5683 181.574 79.5683 178.946H99.5683ZM146.923 166.014C141.568 168 137.686 173.139 137.686 179.226H157.686C157.686 181.874 156.01 183.975 153.879 184.765L146.923 166.014Z" fill="#F28230" mask="url(#path-6-inside-1)"/>
</svg>
