<svg width="68" height="73" viewBox="0 0 68 73" fill="none" xmlns="http://www.w3.org/2000/svg">
<mask id="mask0" mask-type="alpha" maskUnits="userSpaceOnUse" x="0" y="0" width="68" height="73">
<path fill-rule="evenodd" clip-rule="evenodd" d="M67.1175 36.4699V0H0V36.4699V72.9398H67.1175V36.4699Z" fill="white"/>
</mask>
<g mask="url(#mask0)">
<path fill-rule="evenodd" clip-rule="evenodd" d="M63.7614 36.3943V46.5794C63.5516 51.2995 61.0448 55.6185 57.0496 58.1404C54.2474 60.1372 50.9083 62.1339 48.6599 63.4763C46.7135 64.634 42.9381 66.5637 40.5722 67.7382C38.4362 68.7802 36.1022 69.3524 33.7263 69.4162H33.1222C30.7915 69.3339 28.5045 68.7634 26.4104 67.7382C24.0278 66.5804 20.2692 64.634 18.3228 63.4763C16.0408 62.1339 12.7017 60.1204 9.9331 58.1404C5.93793 55.6185 3.43109 51.2995 3.22134 46.5794V26.6455C3.46632 21.9053 6.02518 17.5897 10.0673 15.1013C12.7856 13.0878 16.1415 11.1078 18.457 9.74868C20.3531 8.5909 24.1285 6.71161 26.5111 5.48671C28.6052 4.46317 30.8922 3.891 33.2229 3.80878H33.8269C36.2029 3.87254 38.5369 4.44304 40.6729 5.48671C42.9885 6.71161 46.7638 8.5909 48.6599 9.74868C50.9419 11.091 54.281 13.1046 57.0496 15.0845C61.0448 17.6065 63.5516 21.9255 63.7614 26.6455V36.3943ZM59.7346 12.5508C56.6304 10.3359 52.9054 8.12104 50.3381 6.62767C48.1736 5.35244 43.9955 3.2718 41.3444 1.89589C38.9902 0.734754 36.4163 0.0870697 33.7937 -0.000183105H33.1225C30.5519 0.103849 28.0316 0.743143 25.7228 1.87911C23.0884 3.1879 18.8936 5.35244 16.7794 6.62767C14.2121 8.12104 10.4871 10.3359 7.38293 12.5508C2.96995 15.3714 0.21142 20.1703 0 25.4038V47.5526C0.21142 52.7861 2.96995 57.585 7.38293 60.4056C10.4871 62.6205 14.2121 64.8353 16.7458 66.3287C18.9104 67.6039 23.0884 69.6846 25.7396 71.0605C28.0484 72.1948 30.5687 72.8358 33.1393 72.9398H33.8105C36.4566 72.8609 39.054 72.2149 41.4283 71.0437C44.0627 69.7517 48.2575 67.5872 50.422 66.3119C52.9557 64.8186 56.664 62.6037 59.7849 60.3888C64.1744 57.5615 66.9111 52.771 67.1175 47.5526V25.4038C66.9044 20.1703 64.1476 15.3714 59.7346 12.5508Z" fill="#C22353"/>
</g>
<path fill-rule="evenodd" clip-rule="evenodd" d="M43.4601 52.5862C39.3072 52.5862 35.9429 49.2203 35.9429 45.0707C35.9429 40.9178 39.3072 37.5519 43.4601 37.5519C47.6113 37.5519 50.9756 40.9178 50.9756 45.0707C50.9672 49.2169 47.6079 52.5778 43.4601 52.5862ZM17.0665 42.6209V26.3097C17.0665 25.8097 17.4709 25.4036 17.9726 25.4036H45.9774C46.4774 25.4036 46.8834 25.8097 46.8834 26.3097V34.6994C41.202 32.8084 35.0657 35.879 33.173 41.5588C32.9633 42.188 32.8123 42.834 32.7217 43.4918H17.9222C17.4407 43.4935 17.0413 43.1159 17.0162 42.6361L17.0665 42.6209ZM25.4558 22.0477H38.4263V19.5308H25.4558V22.0477ZM50.2207 36.5619V26.3097C50.2207 23.9572 48.3146 22.0477 45.9588 22.0477H41.7824V19.0274C41.7824 17.4518 40.5038 16.1749 38.9299 16.1749H24.9527C23.3905 16.185 22.1254 17.4485 22.117 19.0106V22.0309H17.9221C15.568 22.0309 13.6602 23.9387 13.6602 26.2929V42.6209C13.6602 44.9734 15.568 46.8829 17.9221 46.8829H32.7551C32.9531 48.0574 33.344 49.1917 33.9129 50.2388L24.9678 55.4555C24.1875 55.9538 23.956 56.9891 24.4527 57.7727C24.9208 58.5076 25.8739 58.7627 26.6457 58.3583L35.8073 53.0224C35.8559 52.9855 35.8995 52.9469 35.9432 52.905C40.2135 57.125 47.0998 57.0831 51.3198 52.811C55.5381 48.5373 55.4962 41.6527 51.2242 37.4344C50.9037 37.1173 50.5614 36.8203 50.2056 36.5451L50.2207 36.5619Z" fill="#C22353"/>
</svg>
