<svg width="80" height="86" viewBox="0 0 80 86" fill="none" xmlns="http://www.w3.org/2000/svg">
<g clip-path="url(#clip0)">
<path fill-rule="evenodd" clip-rule="evenodd" d="M49.1 41H51.9C54.6 41 56 42.3 56 44.4C56 46.5 54.5 47.8 52 47.8H50.8V48.2H53C53.3 48.2 53.6 48.3 53.8 48.5C54 48.7 54.1 49 54.1 49.3C54.1 49.6 54 49.9 53.8 50.1C53.6 50.3 53.3 50.4 53 50.4H50.7V51.1C50.7 51.2 50.7 51.3 50.6 51.4C50.5 51.5 50.4 51.5 50.3 51.5H49.1C49 51.5 48.9 51.5 48.8 51.4C48.7 51.3 48.7 51.2 48.7 51.1V50.3C48.5 50.2 48.3 50.1 48.2 49.9C48.1 49.7 48 49.5 48 49.3C48 49.1 48.1 48.7 48.2 48.6C48.3 48.5 48.5 48.3 48.7 48.2V41.4C48.7 41.3 48.7 41.1 48.8 41.1C48.85 41.1 48.9 41.075 48.95 41.05C49 41.025 49.05 41 49.1 41ZM50.8 45.9H51.8C53.6 45.9 53.9 45.3 53.9 44.4C53.9 43.5 53.6 43 51.8 43H50.8V45.9ZM50.4 30.7C51.3 31.5 52.1 32.8 52.6 34C58.9 34.3 64 39.6 64.2 46C64.2 52.6 58.8 58 52.2 58C51.4 58 50.6 57.9 49.9 57.8V63.3C49.9 66.5 47.3 69.1 44.1 69.1H43.1C41.9 69.1 40.8 68.7 39.8 68.1C38.9 68.7 37.7 69.1 36.5 69.1H35.5C32.3 69.1 29.7 66.5 29.7 63.3V52.8H29.3C28.9 52.8 28.6 52.8 28.2 52.7C26.7 52.4 25.4 51.6 24.6 50.3C23.8 49 23.5 47.4 23.9 45.9L26.3 35.6C26.7 33.9 27.8 31.9 29 30.7L29.3 30.4C29.7 29.9 30.3 29.5 31 29.1C30.4 27.8 30 26.4 30 24.8C30 19.3 34.5 14.9 39.9 14.9C45.3 14.9 49.7 19.3 49.7 24.7C49.7 26.3 49.3 27.9 48.6 29.2C48.7667 29.3333 48.9444 29.4667 49.1222 29.6C49.4778 29.8667 49.8333 30.1333 50.1 30.4L50.4 30.7ZM45.7 24.7C45.7 21.5 43.1 18.9 39.9 18.9C36.6 18.9 34 21.5 34 24.8C34 28 36.7 30.5 39.9 30.5C43.1 30.5 45.7 27.9 45.7 24.7ZM43.9 65.1C44.9 65.1 45.7 64.3 45.7 63.3V56.2C42.3 54.1 40 50.3 40 46C40 40.6 43.5 36.1 48.5 34.5C48.4374 34.4165 48.3791 34.3374 48.3234 34.2617C48.1122 33.9748 47.9374 33.7374 47.7 33.5L47.4 33.2C46.7 32.5 45.4 31.8 44.4 31.7L43.2 31.5C42.2 32 41.1 32.3 39.9 32.3C38.6 32.3 37.5 32 36.5 31.5L35.1 31.7C34.1 31.8 32.8 32.5 32.1 33.2L31.8 33.5C31.2 34.2 30.4 35.6 30.2 36.5L27.8 46.8C27.6 47.7 28.1 48.6 29 48.8H29.3C30.1 48.8 30.8 48.2 31.1 47.4L32.4 43.3C32.7 42.4 33 41.6 33.1 41.5C33.1 41.4 33.1 41.4 33.2 41.4C33.2 41.4 33.3 41.4 33.4 41.5C33.6 41.6 33.7 42.4 33.7 43.4V49.8V63.2C33.7 64.2 34.5 65 35.5 65H36.5C37.4 65 38.3 64.3 38.4 63.3L39.5 50.9H40L41 63.4C41.1 64.3 41.9 65.1 42.9 65.1H43.9ZM44 46C44 50.4 47.6 54 52 54C56.4 54 60 50.4 60 46C60 41.6 56.4 38 52 38C47.6 38 44 41.6 44 46ZM72 15.7C75.5 18.4 78.8 24.1 79.3 28.5C79.3 28.5 80.1 35.2 80 43C80 50.8 79.3 57.4 79.3 57.4C78.8 61.8 75.6 67.5 72 70.2C72 70.2 66.6 74.2 60 78.1C53.3 82 47.3 84.7 47.3 84.7C45.3 85.6 42.7 86.1 40 86.1C37.4 86.1 34.7 85.6 32.7 84.7C32.7 84.7 26.6 82 20 78.1C13.3 74.1 8 70.2 8 70.2C4.5 67.5 1.2 61.8 0.7 57.4C0.7 57.4 0 50.8 0 43C0 35.2 0.7 28.6 0.7 28.6C1.2 24.2 4.4 18.5 8 15.8C8 15.8 13.4 11.9 20 8C26.7 4.1 32.7 1.4 32.7 1.4C34.7 0.5 37.3 0 40 0C42.6 0 45.2 0.5 47.3 1.4C47.3 1.4 53.4 4 60 7.9C66.7 11.8 72 15.7 72 15.7ZM69.9 67C72.6 65 75.3 60.3 75.7 56.8C75.7 56.8 76.4 50.4 76 42.9C76 36.1764 75.5178 30.3368 75.418 29.1278C75.4064 28.9882 75.4 28.9104 75.4 28.9C75 25.6 72.4 20.7 69.6 18.7C69.6 18.7 64.4 14.8 58 11.1C51.6 7.4 45.8 4.7 45.7 4.7C44.2 4.1 42.1 3.7 39.9 3.7C37.7 3.7 35.6 4.1 34 4.8C33.9 4.8 28 7.4 21.7 11.2C17.0346 14.014 12.9725 16.8281 11.138 18.0989C10.4952 18.5442 10.1259 18.8 10.1 18.8C7.4 20.8 4.7 25.5 4.3 29C4.3 29 3.7 35.6 3.7 43C3.7 50.4 4.3 56.9 4.6 56.9C5 60.2 7.6 65.1 10.4 67.1C10.4 67.1 15.6 71 22 74.7C28.4 78.4 34.2 81.1 34.3 81.1C35.8 81.7 37.9 82.1 40.1 82.1C42.3 82.1 44.4 81.7 45.9 81.1C46 81.1 52 78.4 58.3 74.6C62.9654 71.786 67.0275 68.9719 68.862 67.7011C69.5048 67.2558 69.8741 67 69.9 67Z" fill="#5CC4CA"/>
</g>
<defs>
<clipPath id="clip0">
<rect width="80" height="86" fill="white"/>
</clipPath>
</defs>
</svg>
