<svg width="80" height="86" viewBox="0 0 80 86" fill="none" xmlns="http://www.w3.org/2000/svg">
<g clip-path="url(#clip0)">
<path d="M46.9826 69.5556C45.8415 69.9444 44.88 70.7222 44.88 72.2361C44.88 74.3333 46.6364 75 48.88 75C51.1236 75 52.88 74.3333 52.88 72.2361C52.88 70.7778 51.9185 69.9583 50.6877 69.5694C51.5851 69.2639 52.4954 68.7222 52.4954 67.2917C52.4954 65.7083 51.0467 65 48.88 65C46.7133 65 45.2646 65.7083 45.2646 67.2917C45.2646 68.75 46.2133 69.2917 46.9826 69.5556ZM48.7005 70.7083C49.3672 70.9444 50.2903 71.2639 50.2903 72C50.2903 72.8194 49.7005 73.25 48.88 73.25C48.0467 73.25 47.4697 72.8194 47.4697 72C47.4697 71.3056 48.0595 70.9722 48.7005 70.7083ZM48.88 66.5833C49.7262 66.5833 50.1749 66.875 50.1749 67.4722C50.1749 68.1111 49.4313 68.5417 49.0595 68.7639C48.5467 68.5833 47.5851 68.2083 47.5851 67.4722C47.5851 66.8889 48.0467 66.5833 48.88 66.5833Z" fill="#5CC4CA"/>
<path fill-rule="evenodd" clip-rule="evenodd" d="M50.1 35H52.9C55.6 35 57 36.3 57 38.4C57 40.5 55.5 41.8 53 41.8H51.8V42.2H54C54.3 42.2 54.6 42.3 54.8 42.5C55 42.7 55.1 43 55.1 43.3C55.1 43.6 55 43.9 54.8 44.1C54.6 44.3 54.3 44.4 54 44.4H51.7V45.1C51.7 45.2 51.7 45.3 51.6 45.4C51.5 45.5 51.4 45.5 51.3 45.5H50.1C50 45.5 49.9 45.5 49.8 45.4C49.7 45.3 49.7 45.2 49.7 45.1V44.3C49.5 44.2 49.3 44.1 49.2 43.9C49.1 43.7 49 43.5 49 43.3C49 43.1 49.1 42.7 49.2 42.6C49.3 42.5 49.5 42.3 49.7 42.2V35.4C49.7 35.3 49.7 35.1 49.8 35.1C49.85 35.1 49.9 35.075 49.95 35.05C50 35.025 50.05 35 50.1 35ZM51.8 39.9H52.8C54.6 39.9 54.9 39.3 54.9 38.4C54.9 37.5 54.6 37 52.8 37H51.8V39.9ZM51.4 24.7C52.3 25.5 53.1 26.8 53.6 28C59.9 28.3 65 33.6 65.2 40C65.2 46.6 59.8 52 53.2 52C52.4 52 51.6 51.9 50.9 51.8V57.3C50.9 60.5 48.3 63.1 45.1 63.1H44.1C42.9 63.1 41.8 62.7 40.8 62.1C39.9 62.7 38.7 63.1 37.5 63.1H36.5C33.3 63.1 30.7 60.5 30.7 57.3V46.8H30.3C29.9 46.8 29.6 46.8 29.2 46.7C27.7 46.4 26.4 45.6 25.6 44.3C24.8 43 24.5 41.4 24.9 39.9L27.3 29.6C27.7 27.9 28.8 25.9 30 24.7L30.3 24.4C30.7 23.9 31.3 23.5 32 23.1C31.4 21.8 31 20.4 31 18.8C31 13.3 35.5 8.9 40.9 8.9C46.3 8.9 50.7 13.3 50.7 18.7C50.7 20.3 50.3 21.9 49.6 23.2C49.7667 23.3333 49.9444 23.4667 50.1222 23.6C50.4778 23.8667 50.8333 24.1333 51.1 24.4L51.4 24.7ZM46.7 18.7C46.7 15.5 44.1 12.9 40.9 12.9C37.6 12.9 35 15.5 35 18.8C35 22 37.7 24.5 40.9 24.5C44.1 24.5 46.7 21.9 46.7 18.7ZM44.9 59.1C45.9 59.1 46.7 58.3 46.7 57.3V50.2C43.3 48.1 41 44.3 41 40C41 34.6 44.5 30.1 49.5 28.5C49.4374 28.4165 49.3791 28.3374 49.3234 28.2617C49.1122 27.9748 48.9374 27.7374 48.7 27.5L48.4 27.2C47.7 26.5 46.4 25.8 45.4 25.7L44.2 25.5C43.2 26 42.1 26.3 40.9 26.3C39.6 26.3 38.5 26 37.5 25.5L36.1 25.7C35.1 25.8 33.8 26.5 33.1 27.2L32.8 27.5C32.2 28.2 31.4 29.6 31.2 30.5L28.8 40.8C28.6 41.7 29.1 42.6 30 42.8H30.3C31.1 42.8 31.8 42.2 32.1 41.4L33.4 37.3C33.7 36.4 34 35.6 34.1 35.5C34.1 35.4 34.1 35.4 34.2 35.4C34.2 35.4 34.3 35.4 34.4 35.5C34.6 35.6 34.7 36.4 34.7 37.4V43.8V57.2C34.7 58.2 35.5 59 36.5 59H37.5C38.4 59 39.3 58.3 39.4 57.3L40.5 44.9H41L42 57.4C42.1 58.3 42.9 59.1 43.9 59.1H44.9ZM45 40C45 44.4 48.6 48 53 48C57.4 48 61 44.4 61 40C61 35.6 57.4 32 53 32C48.6 32 45 35.6 45 40ZM72 15.7C75.5 18.4 78.8 24.1 79.3 28.5C79.3 28.5 80.1 35.2 80 43C80 50.8 79.3 57.4 79.3 57.4C78.8 61.8 75.6 67.5 72 70.2C72 70.2 66.6 74.2 60 78.1C53.3 82 47.3 84.7 47.3 84.7C45.3 85.6 42.7 86.1 40 86.1C37.4 86.1 34.7 85.6 32.7 84.7C32.7 84.7 26.6 82 20 78.1C13.3 74.1 8 70.2 8 70.2C4.5 67.5 1.2 61.8 0.7 57.4C0.7 57.4 0 50.8 0 43C0 35.2 0.7 28.6 0.7 28.6C1.2 24.2 4.4 18.5 8 15.8C8 15.8 13.4 11.9 20 8C26.7 4.1 32.7 1.4 32.7 1.4C34.7 0.5 37.3 0 40 0C42.6 0 45.2 0.5 47.3 1.4C47.3 1.4 53.4 4 60 7.9C66.7 11.8 72 15.7 72 15.7ZM69.9 67C72.6 65 75.3 60.3 75.7 56.8C75.7 56.8 76.4 50.4 76 42.9C76 36.1764 75.5178 30.3368 75.418 29.1278C75.4064 28.9882 75.4 28.9104 75.4 28.9C75 25.6 72.4 20.7 69.6 18.7C69.6 18.7 64.4 14.8 58 11.1C51.6 7.4 45.8 4.7 45.7 4.7C44.2 4.1 42.1 3.7 39.9 3.7C37.7 3.7 35.6 4.1 34 4.8C33.9 4.8 28 7.4 21.7 11.2C17.0346 14.014 12.9725 16.8281 11.138 18.0989C10.4952 18.5442 10.1259 18.8 10.1 18.8C7.4 20.8 4.7 25.5 4.3 29C4.3 29 3.7 35.6 3.7 43C3.7 50.4 4.3 56.9 4.6 56.9C5 60.2 7.6 65.1 10.4 67.1C10.4 67.1 15.6 71 22 74.7C28.4 78.4 34.2 81.1 34.3 81.1C35.8 81.7 37.9 82.1 40.1 82.1C42.3 82.1 44.4 81.7 45.9 81.1C46 81.1 52 78.4 58.3 74.6C62.9654 71.786 67.0275 68.9719 68.862 67.7011C69.5048 67.2558 69.8741 67 69.9 67ZM29 70.968C29 73.768 30.652 75.14 33.284 75.14C35.93 75.14 37.568 73.74 37.568 70.968V69.316C37.568 66.502 35.902 65.06 33.284 65.06C30.68 65.06 29 66.516 29 69.316V70.968ZM33.284 66.908C34.544 66.908 35.076 67.944 35.076 69.176V71.024C35.076 72.382 34.544 73.292 33.284 73.292C32.024 73.292 31.492 72.382 31.492 71.024V69.176C31.492 67.958 32.024 66.908 33.284 66.908ZM38.9369 71.416H43.1369V69.596H38.9369V71.416Z" fill="#5CC4CA"/>
</g>
<defs>
<clipPath id="clip0">
<rect width="80" height="86" fill="white"/>
</clipPath>
</defs>
</svg>
